<?xml version="1.0" encoding="UTF-8" standalone="no"?>
<!-- Created with Inkscape (http://www.inkscape.org/) -->

<svg
   width="137.30293mm"
   height="33.499851mm"
   viewBox="0 0 137.30293 33.499851"
   version="1.1"
   id="svg697"
   inkscape:version="1.2.1 (9c6d41e410, 2022-07-14)"
   sodipodi:docname="logo_safer_x.svg"
   inkscape:export-filename="logo_bold.png"
   inkscape:export-xdpi="190.5"
   inkscape:export-ydpi="190.5"
   xmlns:inkscape="http://www.inkscape.org/namespaces/inkscape"
   xmlns:sodipodi="http://sodipodi.sourceforge.net/DTD/sodipodi-0.dtd"
   xmlns="http://www.w3.org/2000/svg"
   xmlns:svg="http://www.w3.org/2000/svg">
  <sodipodi:namedview
     id="namedview699"
     pagecolor="#ffffff"
     bordercolor="#000000"
     borderopacity="0.25"
     inkscape:showpageshadow="2"
     inkscape:pageopacity="0.0"
     inkscape:pagecheckerboard="0"
     inkscape:deskcolor="#d1d1d1"
     inkscape:document-units="mm"
     showgrid="false"
     inkscape:zoom="1.829812"
     inkscape:cx="-234.72357"
     inkscape:cy="-53.01091"
     inkscape:window-width="3840"
     inkscape:window-height="2054"
     inkscape:window-x="-11"
     inkscape:window-y="-11"
     inkscape:window-maximized="1"
     inkscape:current-layer="layer1"
     showguides="true">
    <sodipodi:guide
       position="122.64662,24.705549"
       orientation="0,-1"
       id="guide656"
       inkscape:locked="false" />
  </sodipodi:namedview>
  <defs
     id="defs694" />
  <g
     inkscape:label="Layer 1"
     inkscape:groupmode="layer"
     id="layer1"
     transform="translate(3.923826,-135.2718)">
    <path
       id="path1189"
       style="display:inline;mix-blend-mode:normal;fill:#ffffff;fill-opacity:1;fill-rule:nonzero;stroke:none;stroke-width:0.0829526;stroke-miterlimit:4;stroke-dasharray:none;stroke-opacity:1"
       d="m 12.458834,145.68876 c 0.573621,0.4589 0.826015,1.03252 0.826015,1.65203 0,1.17019 -0.963683,2.11099 -2.133867,2.11099 -0.527737,0 -0.894849,-0.13767 -1.514362,-0.45889 -1.147242,-0.66547 -2.661667,-1.07848 -4.153008,-1.07848 -2.891119,0 -4.313697,1.17019 -4.313697,2.98289 0,1.28491 0.803073,2.15682 3.304122,2.77632 l 3.304052,0.73417 c 4.497185,1.1473 6.631052,3.30412 6.631052,6.86057 0,4.6119 -3.808838,7.50302 -8.925529,7.50302 -3.785968,0 -6.7229,-1.19314 -8.535539,-2.63873 -0.642455,-0.52773 -0.871899,-1.14724 -0.871899,-1.7438 0,-1.14724 0.940733,-2.08791 2.065033,-2.08791 0.550671,0 0.894841,0.11465 1.491412,0.50478 1.353744,0.94074 3.166384,1.7897 5.896814,1.7897 2.891111,0 4.382523,-1.3997 4.382523,-3.21227 0,-1.37676 -0.894841,-2.29455 -3.281102,-2.86817 l -3.556516,-0.82602 c -3.740005,-0.94073 -6.332767,-3.05166 -6.332767,-6.69994 0,-4.56602 3.785889,-7.29645 8.92553,-7.29645 2.684609,0 5.300321,0.82601 6.791733,1.99619"
       inkscape:export-xdpi="177.90919"
       inkscape:export-ydpi="177.90919" />
    <path
       id="path1191"
       style="display:inline;mix-blend-mode:normal;fill:#ffffff;fill-opacity:1;fill-rule:nonzero;stroke:none;stroke-width:0.0829526;stroke-miterlimit:4;stroke-dasharray:none;stroke-opacity:1"
       d="m 28.602354,143.69248 c -2.845223,0 -5.460313,0.73451 -6.814054,1.39991 -1.193135,0.52774 -1.491382,1.37644 -1.491382,2.08773 0,1.10135 0.917232,2.04225 2.064473,2.04225 0.34417,0 0.734415,-0.0691 1.239201,-0.25269 1.514354,-0.64245 3.349742,-1.05524 5.001762,-1.05524 1.21056,0 2.18565,0.16567 2.950208,0.50075 1.554056,0.6811 2.235522,2.06514 2.235522,4.20284 v 1.79007 c -0.975398,-0.26505 -1.877247,-0.46921 -2.778125,-0.61443 -1.04876,-0.16905 -2.096406,-0.25787 -3.256649,-0.25787 -6.218035,0 -9.109004,3.41914 -9.109004,7.45743 0,4.45136 3.051917,7.77782 9.292972,7.77782 1.188342,0 2.283607,-0.0982 3.28042,-0.25786 3.083493,-0.49388 5.213685,-1.58387 6.150012,-2.24276 0.688346,-0.48185 0.871782,-0.96351 0.871782,-1.74356 v -12.00031 c 0,-4.84491 -2.07934,-7.52644 -6.002735,-8.45581 -1.074843,-0.25461 -2.28738,-0.37827 -3.634403,-0.37827 z m 3.304708,2.31562 a 87.926589,87.926589 0 0 0 -0.07338,0.46767 87.926589,87.926589 0 0 1 0.07338,-0.46767 z m -3.625619,11.01586 c 0.902549,0 1.72303,0.0793 2.555917,0.2217 0.924545,0.15807 1.864364,0.39431 2.950724,0.69608 v 5.29993 c -0.650198,0.47414 -1.685602,0.95531 -2.872176,1.27073 -0.823323,0.21886 -1.718823,0.35811 -2.611727,0.35811 -3.418836,0 -5.25446,-1.42201 -5.25446,-3.94601 0,-2.1338 1.65227,-3.90054 5.231722,-3.90054 z" />
    <path
       id="path1193"
       style="display:inline;mix-blend-mode:normal;fill:#ffffff;fill-opacity:1;fill-rule:nonzero;stroke:none;stroke-width:0.0829526;stroke-miterlimit:4;stroke-dasharray:none;stroke-opacity:1"
       d="m 53.424095,135.2718 c -4.910255,0 -7.640878,2.95976 -7.640878,7.84707 v 1.6521 H 44.38382 c -1.239017,0 -2.202967,0.89494 -2.202967,2.15697 0,1.1243 0.96395,2.04174 2.202967,2.04174 h 1.399397 v 17.18603 c 0,1.35381 1.055417,2.38641 2.294434,2.38641 1.353744,0 2.317688,-1.0326 2.317688,-2.38641 v -17.18603 h 6.011519 c 1.147312,0 2.179712,-0.91744 2.179712,-2.04174 0,-1.26203 -1.0324,-2.15697 -2.179712,-2.15697 h -6.011519 v -1.37666 c 0,-2.43222 0.986696,-3.85455 3.304191,-3.85455 1.078408,0 1.904373,0.1603 2.523877,0.32091 0.344169,0.0917 0.734311,0.18345 1.078487,0.18345 1.216076,0 2.110982,-0.91775 2.110982,-2.06499 0,-0.94074 -0.596738,-1.69787 -1.698087,-2.06499 -1.239017,-0.43595 -2.936952,-0.64234 -4.290694,-0.64234 z" />
    <path
       id="path1195"
       style="display:inline;mix-blend-mode:normal;fill:#ffffff;fill-opacity:1;fill-rule:nonzero;stroke:none;stroke-width:0.0829526;stroke-miterlimit:4;stroke-dasharray:none;stroke-opacity:1"
       d="m 72.123729,143.69248 c -5.782091,0 -9.935304,3.64835 -10.394198,9.54515 -0.114741,1.44552 -0.137497,3.9465 -0.02274,5.66736 0.413074,5.82804 4.267726,9.86658 10.646379,9.86658 h 0.01137 c 3.0462,-0.002 5.520586,-0.68954 7.124629,-1.46865 1.078407,-0.52773 1.468645,-1.285 1.468645,-2.04225 0,-1.14724 -0.940896,-2.06499 -2.042253,-2.06499 -0.458895,0 -0.940904,0.16061 -1.583366,0.45889 -1.23908,0.57363 -2.799484,0.91777 -4.841565,0.91777 -0.250419,0 -0.49533,-0.01 -0.735872,-0.0279 a 47.195385,47.195385 0 0 1 0,-5.2e-4 c -3.329891,-0.25545 -5.665287,-2.27015 -5.665287,-5.82239 v -0.68833 h 5.476151 7.716842 c 2.065031,0 2.960026,-1.14759 2.960026,-2.82256 v -1.37615 c 0,-5.29346 -3.04913,-9.07982 -7.906494,-9.95081 -0.701092,-0.12571 -1.439553,-0.1912 -2.212268,-0.1912 z m 0.02325,3.99252 c 0.337445,0 0.663043,0.0215 0.977718,0.0625 3.10885,0.40452 5.056296,2.76137 4.827096,6.17843 -0.02296,0.45883 -0.183853,0.6196 -0.596863,0.6196 h -5.520077 -5.745385 c -0.06882,-4.22183 1.927441,-6.86056 6.057511,-6.86056 z" />
    <path
       id="path1197"
       style="display:inline;mix-blend-mode:normal;fill:#ffffff;fill-opacity:1;fill-rule:nonzero;stroke:none;stroke-width:0.0829526;stroke-miterlimit:4;stroke-dasharray:none;stroke-opacity:1"
       d="m 95.426182,143.69248 c -0.142614,0 -0.282813,0.003 -0.42168,0.008 a 28.734481,28.734481 0 0 1 0,-5.2e-4 c -4.731915,0.15676 -7.287927,2.96927 -7.287927,7.44967 v 15.0518 c 0,1.28498 1.05572,2.34042 2.317688,2.34042 0.437395,0 0.837064,-0.12035 1.177706,-0.32556 a 28.734481,28.734481 0 0 0 0,5.2e-4 c 0.677922,-0.40838 1.116211,-1.16015 1.116211,-2.01538 v -14.34021 c 0,-2.56982 1.19326,-3.64836 3.533634,-3.64836 0.871899,0 1.491996,0.0914 1.882056,0.1602 0.573621,0.11473 1.101117,0.22996 1.51412,0.22996 1.19314,0 2.08773,-1.00994 2.08773,-2.24896 0,-1.35375 -0.96323,-1.95006 -1.881025,-2.20245 -0.871898,-0.2524 -2.409364,-0.45889 -4.038513,-0.45889 z" />
    <g
       id="g654"
       transform="matrix(0.89949158,0.89949158,-0.89949158,0.89949158,158.08291,-87.689606)"
       style="fill:#ffffff">
      <g
         id="g652"
         style="fill:#ffffff">
        <path
           id="path644"
           style="mix-blend-mode:normal;fill:#ffffff;fill-opacity:1;stroke:none;stroke-width:0.082953;stroke-miterlimit:4;stroke-dasharray:none;stroke-opacity:1;stop-color:#000000"
           d="m 115.08131,144.0661 a 3.6300552,3.6300552 0 0 0 -0.14624,0.004 3.6300552,3.6300552 0 0 0 -0.14573,0.009 3.6300552,3.6300552 0 0 0 -0.14469,0.0155 3.6300552,3.6300552 0 0 0 -0.1447,0.0207 3.6300552,3.6300552 0 0 0 -0.0718,0.0124 3.6300552,3.6300552 0 0 0 -0.0718,0.0145 3.6300552,3.6300552 0 0 0 -0.14211,0.032 3.6300552,3.6300552 0 0 0 -0.0703,0.0186 3.6300552,3.6300552 0 0 0 -0.14004,0.0408 3.6300552,3.6300552 0 0 0 -0.13849,0.047 3.6300552,3.6300552 0 0 0 -0.20361,0.0796 3.6300552,3.6300552 0 0 0 -0.13281,0.0605 3.6300552,3.6300552 0 0 0 -0.0656,0.032 3.6300552,3.6300552 0 0 0 -0.12919,0.0677 3.6300552,3.6300552 0 0 0 -0.063,0.0362 3.6300552,3.6300552 0 0 0 -0.0631,0.0372 3.6300552,3.6300552 0 0 0 -0.41651,0.29507 3.6300552,3.6300552 0 0 0 -0.0558,0.047 3.6300552,3.6300552 0 0 0 -0.0553,0.047 3.6300552,3.6300552 0 0 0 -0.25994,0.25579 3.6300552,3.6300552 0 0 0 -0.0486,0.0548 3.6300552,3.6300552 0 0 0 -0.0481,0.0548 3.6300552,3.6300552 0 0 0 -0.0465,0.0563 3.6300552,3.6300552 0 0 0 -0.0455,0.0563 3.6300552,3.6300552 0 0 0 -0.17053,0.2372 3.6300552,3.6300552 0 0 0 -0.0393,0.0615 3.6300552,3.6300552 0 0 0 -0.0382,0.062 3.6300552,3.6300552 0 0 0 -0.0729,0.12609 3.6300552,3.6300552 0 0 0 -0.0346,0.0646 3.6300552,3.6300552 0 0 0 -0.0956,0.19689 3.6300552,3.6300552 0 0 0 -0.0289,0.0672 3.6300552,3.6300552 0 0 0 -0.0801,0.2036 3.6300552,3.6300552 0 0 0 -0.0455,0.13849 3.6300552,3.6300552 0 0 0 -0.0212,0.0703 3.6300552,3.6300552 0 0 0 -0.0196,0.0703 3.6300552,3.6300552 0 0 0 -0.0346,0.1416 3.6300552,3.6300552 0 0 0 -0.0625,0.35915 3.6300552,3.6300552 0 0 0 -0.008,0.0729 3.6300552,3.6300552 0 0 0 -0.007,0.0729 3.6300552,3.6300552 0 0 0 -0.005,0.0723 3.6300552,3.6300552 0 0 0 -0.006,0.14573 3.6300552,3.6300552 0 0 0 -0.001,0.0729 3.6300552,3.6300552 0 0 0 0,0.0114 3.6300552,3.6300552 0 0 0 0.004,0.14573 3.6300552,3.6300552 0 0 0 0.004,0.0729 3.6300552,3.6300552 0 0 0 0.0124,0.14573 3.6300552,3.6300552 0 0 0 0.0181,0.14418 3.6300552,3.6300552 0 0 0 0.0109,0.0724 3.6300552,3.6300552 0 0 0 0.0269,0.14366 3.6300552,3.6300552 0 0 0 0.016,0.0713 3.6300552,3.6300552 0 0 0 0.0336,0.13436 3.6300552,3.6300552 0 0 0 0.0212,0.077 3.6300552,3.6300552 0 0 0 0.0212,0.0698 3.6300552,3.6300552 0 0 0 0.0465,0.13849 3.6300552,3.6300552 0 0 0 0.0253,0.0682 3.6300552,3.6300552 0 0 0 0.0269,0.0682 3.6300552,3.6300552 0 0 0 0.0279,0.0672 3.6300552,3.6300552 0 0 0 0.0295,0.0667 3.6300552,3.6300552 0 0 0 0.0305,0.0661 3.6300552,3.6300552 0 0 0 0.0656,0.13022 3.6300552,3.6300552 0 0 0 0.108,0.19069 3.6300552,3.6300552 0 0 0 0.078,0.12299 3.6300552,3.6300552 0 0 0 0.0837,0.11989 3.6300552,3.6300552 0 0 0 0.0429,0.0584 3.6300552,3.6300552 0 0 0 0.045,0.0579 3.6300552,3.6300552 0 0 0 0.045,0.0574 3.6300552,3.6300552 0 0 0 0.19431,0.21807 3.6300552,3.6300552 0 0 0 0.10335,0.10284 3.6300552,3.6300552 0 0 0 0.0527,0.0496 3.6300552,3.6300552 0 0 0 0.0543,0.0491 3.6300552,3.6300552 0 0 0 0.03,0.0253 11.220257,11.220257 0 0 1 0.0915,-0.0568 11.220256,11.220256 0 0 0 -0.0915,0.0574 3.6300552,3.6300552 0 0 0 0.0253,0.0222 3.6300552,3.6300552 0 0 0 0.35037,0.26252 3.6300552,3.6300552 0 0 0 0.061,0.0393 3.6300552,3.6300552 0 0 0 0.12506,0.0749 3.6300552,3.6300552 0 0 0 0.0636,0.0362 3.6300552,3.6300552 0 0 0 0.26096,0.13022 3.6300552,3.6300552 0 0 0 0.13488,0.0568 3.6300552,3.6300552 0 0 0 0.0677,0.0264 3.6300552,3.6300552 0 0 0 0.0687,0.0253 3.6300552,3.6300552 0 0 0 0.0687,0.0238 3.6300552,3.6300552 0 0 0 0.20928,0.0631 3.6300552,3.6300552 0 0 0 0.0708,0.0181 3.6300552,3.6300552 0 0 0 0.14263,0.032 3.6300552,3.6300552 0 0 0 0.0713,0.0134 3.6300552,3.6300552 0 0 0 0.21653,0.0331 3.6300552,3.6300552 0 0 0 0.14521,0.015 3.6300552,3.6300552 0 0 0 0.0729,0.005 3.6300552,3.6300552 0 0 0 0.0729,0.004 3.6300552,3.6300552 0 0 0 0.14625,0.003 3.6300552,3.6300552 0 0 0 0.22944,-0.007 3.6300552,3.6300552 0 0 0 0.0729,-0.006 3.6300552,3.6300552 0 0 0 0.21755,-0.0248 3.6300552,3.6300552 0 0 0 0.0724,-0.0114 3.6300552,3.6300552 0 0 0 0.21446,-0.0419 3.6300552,3.6300552 0 0 0 0.21187,-0.0553 3.6300552,3.6300552 0 0 0 0.0698,-0.0212 3.6300552,3.6300552 0 0 0 0.0698,-0.0227 3.6300552,3.6300552 0 0 0 0.13694,-0.0486 3.6300552,3.6300552 0 0 0 0.33383,-0.1478 3.6300552,3.6300552 0 0 0 0.25528,-0.14056 3.6300552,3.6300552 0 0 0 0.18397,-0.11988 3.6300552,3.6300552 0 0 0 0.0594,-0.0419 3.6300552,3.6300552 0 0 0 0.0584,-0.0434 3.6300552,3.6300552 0 0 0 0.0579,-0.0444 3.6300552,3.6300552 0 0 0 0.4284,-0.39584 3.6300552,3.6300552 0 0 0 0.0961,-0.10956 3.6300552,3.6300552 0 0 0 0.22169,-0.28939 3.6300552,3.6300552 0 0 0 0.25941,-0.43976 3.6300552,3.6300552 0 0 0 0.0315,-0.0656 3.6300552,3.6300552 0 0 0 0.0879,-0.20051 3.6300552,3.6300552 0 0 0 0.0517,-0.13642 3.6300552,3.6300552 0 0 0 0.046,-0.13849 3.6300552,3.6300552 0 0 0 0.0207,-0.0698 3.6300552,3.6300552 0 0 0 0.001,-0.002 v -0.001 a 3.6300552,3.6300552 0 0 0 0.0186,-0.0677 3.6300552,3.6300552 0 0 0 0.0351,-0.1416 3.6300552,3.6300552 0 0 0 0.015,-0.0713 3.6300552,3.6300552 0 0 0 0.0372,-0.21601 3.6300552,3.6300552 0 0 0 0.01,-0.0718 3.6300552,3.6300552 0 0 0 0.008,-0.0724 3.6300552,3.6300552 0 0 0 0.007,-0.0734 3.6300552,3.6300552 0 0 0 0.005,-0.0729 3.6300552,3.6300552 0 0 0 0.006,-0.14573 3.6300552,3.6300552 0 0 0 5.2e-4,-0.0729 3.6300552,3.6300552 0 0 0 -0.007,-0.22945 3.6300552,3.6300552 0 0 0 -0.006,-0.0729 3.6300552,3.6300552 0 0 0 -0.007,-0.0729 3.6300552,3.6300552 0 0 0 -0.008,-0.0724 3.6300552,3.6300552 0 0 0 -0.01,-0.0724 3.6300552,3.6300552 0 0 0 -0.0377,-0.21549 3.6300552,3.6300552 0 0 0 -0.0155,-0.0713 3.6300552,3.6300552 0 0 0 -0.0553,-0.21187 3.6300552,3.6300552 0 0 0 -0.0326,-0.10542 13.350395,13.350395 0 0 0 -5.2e-4,0 3.6300552,3.6300552 0 0 0 -0.0599,-0.17054 3.6300552,3.6300552 0 0 0 -0.0548,-0.13487 3.6300552,3.6300552 0 0 0 -0.06,-0.13333 3.6300552,3.6300552 0 0 0 -0.032,-0.0656 3.6300552,3.6300552 0 0 0 -0.0336,-0.0646 3.6300552,3.6300552 0 0 0 -0.0708,-0.12816 3.6300552,3.6300552 0 0 0 -0.0372,-0.0625 3.6300552,3.6300552 0 0 0 -0.0382,-0.062 3.6300552,3.6300552 0 0 0 -0.0398,-0.0615 3.6300552,3.6300552 0 0 0 -0.0832,-0.11989 3.6300552,3.6300552 0 0 0 -0.0879,-0.11628 3.6300552,3.6300552 0 0 0 -0.0455,-0.0568 3.6300552,3.6300552 0 0 0 -0.0951,-0.1111 3.6300552,3.6300552 0 0 0 -0.0486,-0.0537 3.6300552,3.6300552 0 0 0 -0.0506,-0.0532 3.6300552,3.6300552 0 0 0 -0.0506,-0.0522 3.6300552,3.6300552 0 0 0 -0.0527,-0.0506 3.6300552,3.6300552 0 0 0 -0.21859,-0.19327 3.6300552,3.6300552 0 0 0 -0.35502,-0.25528 3.6300552,3.6300552 0 0 0 -0.062,-0.0382 3.6300552,3.6300552 0 0 0 -0.063,-0.0372 3.6300552,3.6300552 0 0 0 -0.0636,-0.0357 3.6300552,3.6300552 0 0 0 -0.12919,-0.0677 3.6300552,3.6300552 0 0 0 -0.19895,-0.0915 3.6300552,3.6300552 0 0 0 -0.0672,-0.0279 3.6300552,3.6300552 0 0 0 -0.20567,-0.0754 3.6300552,3.6300552 0 0 0 -0.20981,-0.0631 3.6300552,3.6300552 0 0 0 -0.0708,-0.0176 3.6300552,3.6300552 0 0 0 -0.21394,-0.0465 3.6300552,3.6300552 0 0 0 -0.0723,-0.0119 3.6300552,3.6300552 0 0 0 -0.0718,-0.0109 3.6300552,3.6300552 0 0 0 -0.14469,-0.0181 3.6300552,3.6300552 0 0 0 -0.0729,-0.006 3.6300552,3.6300552 0 0 0 -0.0724,-0.005 3.6300552,3.6300552 0 0 0 -0.0729,-0.004 3.6300552,3.6300552 0 0 0 -0.14625,-0.003 3.6300552,3.6300552 0 0 0 -0.0114,0 z m 3.62821,8.59379 -5.2e-4,5.2e-4 -5.2e-4,5.1e-4 a 7.2601475,7.2601475 0 0 0 -0.30954,0.007 7.2601478,7.2601478 0 0 0 -0.10335,0.005 7.2601475,7.2601475 0 0 0 -0.20567,0.0155 7.2601478,7.2601478 0 0 0 -0.30748,0.0336 7.2601475,7.2601475 0 0 0 -0.10232,0.0139 7.2601478,7.2601478 0 0 0 -0.30541,0.0512 7.2601475,7.2601475 0 0 0 -0.10128,0.0196 7.2601478,7.2601478 0 0 0 -0.20154,0.0439 7.2601475,7.2601475 0 0 0 -0.10025,0.0248 7.2601478,7.2601478 0 0 0 -0.19947,0.0522 7.2601475,7.2601475 0 0 0 -0.19792,0.0584 7.2601478,7.2601478 0 0 0 -0.19638,0.0636 7.2601475,7.2601475 0 0 0 -0.0971,0.0341 7.2601478,7.2601478 0 0 0 -0.47955,0.19069 7.2601475,7.2601475 0 0 0 -0.0941,0.0424 7.2601478,7.2601478 0 0 0 -0.0935,0.0439 7.2601475,7.2601475 0 0 0 -0.27699,0.13849 7.2601478,7.2601478 0 0 0 -0.0904,0.0486 7.2601475,7.2601475 0 0 0 -0.17983,0.10128 7.2601478,7.2601478 0 0 0 -0.17725,0.10646 7.2601475,7.2601475 0 0 0 -0.0868,0.0548 7.2601478,7.2601478 0 0 0 -0.0863,0.0563 7.2601475,7.2601475 0 0 0 -0.0858,0.0579 7.2601478,7.2601478 0 0 0 -0.16898,0.11885 7.2601475,7.2601475 0 0 0 -0.16537,0.12351 7.2601478,7.2601478 0 0 0 -0.0811,0.0631 7.2601475,7.2601475 0 0 0 -0.15968,0.13074 7.2601478,7.2601478 0 0 0 -0.15658,0.13539 7.2601475,7.2601475 0 0 0 -0.0765,0.0687 7.2601478,7.2601478 0 0 0 -0.15038,0.14108 7.2601475,7.2601475 0 0 0 -0.21756,0.22065 7.2601478,7.2601478 0 0 0 -0.13952,0.15142 7.2601475,7.2601475 0 0 0 -0.13591,0.15606 7.2601478,7.2601478 0 0 0 -0.0661,0.0791 7.2601475,7.2601475 0 0 0 -0.0646,0.0801 7.2601478,7.2601478 0 0 0 -0.18811,0.24598 7.2601475,7.2601475 0 0 0 -0.23357,0.34003 7.2601478,7.2601478 0 0 0 -0.21446,0.35295 7.2601475,7.2601475 0 0 0 -0.0501,0.0899 7.2601478,7.2601478 0 0 0 -0.0491,0.0909 7.2601475,7.2601475 0 0 0 -0.0475,0.091 7.2601478,7.2601478 0 0 0 -0.0465,0.0925 7.2601475,7.2601475 0 0 0 -0.0894,0.18604 7.2601475,7.2601475 0 0 0 -0.19896,0.47594 7.2601478,7.2601478 0 0 0 -0.0357,0.0966 7.2601475,7.2601475 0 0 0 -0.15762,0.49145 7.2601478,7.2601478 0 0 0 -0.0279,0.0987 7.2601475,7.2601475 0 0 0 -0.0729,0.30024 7.2601478,7.2601478 0 0 0 0,5.1e-4 7.2601475,7.2601475 0 0 0 -0.0941,0.50695 7.2601478,7.2601478 0 0 0 -0.0279,0.20464 7.2601475,7.2601475 0 0 0 -0.0212,0.20515 7.2601478,7.2601478 0 0 0 -0.009,0.10284 7.2601475,7.2601475 0 0 0 -0.0171,0.30903 7.2601478,7.2601478 0 0 0 -0.004,0.20618 7.2601475,7.2601475 0 0 0 0,0.0398 v 4.96559 c 0,0.12569 0.006,0.24974 0.0186,0.37207 0.0123,0.12234 0.0312,0.24234 0.0553,0.36071 0.0482,0.23675 0.11877,0.46532 0.21032,0.68264 0.13734,0.32601 0.32111,0.62781 0.5426,0.89659 0.0738,0.0896 0.1516,0.17531 0.23358,0.25735 0.16397,0.16408 0.34392,0.3126 0.53692,0.44286 0.193,0.13025 0.39926,0.24219 0.6165,0.33383 0.10862,0.0458 0.21953,0.0866 0.33331,0.12196 0.11379,0.0353 0.22995,0.0648 0.3483,0.0889 0.11835,0.0241 0.23941,0.0429 0.36173,0.0553 0.12232,0.0124 0.24639,0.0186 0.37208,0.0186 0.12569,0 0.24973,-0.006 0.37207,-0.0186 1.83363,-0.18517 3.2566,-1.72509 3.25871,-3.60857 v -0.004 -2.5647 a 2.399247,2.399247 0 0 1 5.2e-4,-0.0594 2.399247,2.399247 0 0 1 0.003,-0.0589 2.399247,2.399247 0 0 1 0.008,-0.11834 2.399247,2.399247 0 0 1 0.007,-0.0594 2.399247,2.399247 0 0 1 0.008,-0.0584 2.399247,2.399247 0 0 1 0.0331,-0.17518 2.399247,2.399247 0 0 1 0.0134,-0.0574 2.399247,2.399247 0 0 1 0.0315,-0.1142 2.399247,2.399247 0 0 1 0.0579,-0.16795 2.399247,2.399247 0 0 1 0.0227,-0.0553 2.399247,2.399247 0 0 1 0.0233,-0.0543 2.399247,2.399247 0 0 1 0.0248,-0.0537 2.399247,2.399247 0 0 1 0.0263,-0.0537 2.399247,2.399247 0 0 1 0.11731,-0.20568 2.399247,2.399247 0 0 1 0.0331,-0.0501 2.399247,2.399247 0 0 1 0.0336,-0.0486 2.399247,2.399247 0 0 1 0.22686,-0.27337 2.399247,2.399247 0 0 1 0.12764,-0.1235 2.399247,2.399247 0 0 1 0.0444,-0.0398 2.399247,2.399247 0 0 1 0.14005,-0.11007 2.399247,2.399247 0 0 1 0.0481,-0.0341 2.399247,2.399247 0 0 1 0.0491,-0.0336 2.399247,2.399247 0 0 1 0.0496,-0.0315 2.399247,2.399247 0 0 1 0.15451,-0.0889 2.399247,2.399247 0 0 1 0.0532,-0.0269 2.399247,2.399247 0 0 1 0.10748,-0.0496 2.399247,2.399247 0 0 1 0.0548,-0.0233 2.399247,2.399247 0 0 1 0.0553,-0.0212 2.399247,2.399247 0 0 1 0.11213,-0.0398 2.399247,2.399247 0 0 1 0.22893,-0.061 2.399247,2.399247 0 0 1 0.17518,-0.031 2.399247,2.399247 0 0 1 0.32815,-0.0222 h 2.56625 0.004 v -5.1e-4 a 4.9689776,4.9689776 0 0 0 0,-5.2e-4 c 0.24994,-2e-4 0.49375,-0.025 0.72916,-0.0729 0.11835,-0.0241 0.23452,-0.0542 0.3483,-0.0894 0.22758,-0.0705 0.44592,-0.16295 0.65164,-0.2744 0.20572,-0.11145 0.39918,-0.24198 0.57826,-0.38964 0.0895,-0.0738 0.17536,-0.15211 0.25735,-0.2341 0.24594,-0.24595 0.45655,-0.52703 0.62373,-0.83561 0.0557,-0.10286 0.10667,-0.20919 0.15245,-0.31781 0.0458,-0.10862 0.0862,-0.21952 0.12143,-0.33331 0.0705,-0.22757 0.1195,-0.46539 0.14418,-0.71003 0.0123,-0.12232 0.0186,-0.24587 0.0186,-0.37156 v -5.1e-4 c 0,-0.25138 -0.0252,-0.49653 -0.0734,-0.73329 -0.0241,-0.11838 -0.0537,-0.23447 -0.0889,-0.3483 -0.0352,-0.11382 -0.0762,-0.22516 -0.12195,-0.33383 -0.0458,-0.10866 -0.0967,-0.2149 -0.15245,-0.31781 -0.0557,-0.10291 -0.11631,-0.20267 -0.18138,-0.29921 -0.19523,-0.28965 -0.43108,-0.54936 -0.6997,-0.77101 -0.0895,-0.0739 -0.18307,-0.14313 -0.27957,-0.20826 -0.0965,-0.0651 -0.19583,-0.12612 -0.29869,-0.1819 -0.20572,-0.11155 -0.42407,-0.20387 -0.65164,-0.2744 -0.22757,-0.0705 -0.46488,-0.11895 -0.70952,-0.14366 -0.12232,-0.0124 -0.24638,-0.0191 -0.37207,-0.0191 h -4.96507 a 7.2601478,7.2601478 0 0 0 -0.014,0 z m -12.21166,0.001 c -1.13104,1.2e-4 -2.13803,0.51303 -2.80242,1.3193 -0.0738,0.0896 -0.14317,0.18251 -0.20825,0.27905 -0.19522,0.28966 -0.3501,0.60939 -0.45579,0.95085 -0.10569,0.34146 -0.16226,0.70452 -0.16226,1.08159 v 5.2e-4 c 0,0.25137 0.0252,0.49657 0.0734,0.73328 0.0241,0.11835 0.0537,0.23451 0.0889,0.3483 0.0705,0.22757 0.16295,0.44542 0.2744,0.65113 0.0557,0.10287 0.11632,0.2027 0.18139,0.2992 0.13016,0.193 0.27838,0.37243 0.44235,0.5364 0.39949,0.39949 0.89295,0.70427 1.44436,0.88264 0.0144,0.005 0.0279,0.011 0.0424,0.0155 0.0467,0.0145 0.094,0.0277 0.14159,0.0403 0.0192,0.005 0.0385,0.0102 0.0579,0.015 0.0466,0.0116 0.0937,0.0228 0.14108,0.0326 0.003,5.3e-4 0.005,0.001 0.008,0.002 1.6e-4,3e-5 3.5e-4,-3e-5 5.2e-4,0 0.002,3.8e-4 0.004,6.6e-4 0.006,0.001 0.0555,0.0112 0.11155,0.0208 0.16795,0.0295 0.002,2.7e-4 0.003,7.7e-4 0.005,0.001 1.6e-4,3e-5 3.5e-4,-2e-5 5.1e-4,0 0.001,1.9e-4 0.002,3.4e-4 0.004,5.2e-4 0.0591,0.009 0.11835,0.0167 0.17828,0.0227 0.12232,0.0123 0.24587,0.0186 0.37156,0.0186 h 5.1e-4 1.00408 1.56218 a 2.399247,2.399247 0 0 1 0.0594,5.2e-4 2.399247,2.399247 0 0 1 0.0594,0.002 2.399247,2.399247 0 0 1 0.0589,0.004 2.399247,2.399247 0 0 1 0.40928,0.0672 2.399247,2.399247 0 0 1 0.0574,0.015 2.399247,2.399247 0 0 1 0.11369,0.0351 2.399247,2.399247 0 0 1 0.1664,0.0625 2.399247,2.399247 0 0 1 0.0543,0.0238 2.399247,2.399247 0 0 1 0.0537,0.0248 2.399247,2.399247 0 0 1 0.0532,0.0258 2.399247,2.399247 0 0 1 0.0527,0.0279 2.399247,2.399247 0 0 1 0.10283,0.0589 2.399247,2.399247 0 0 1 0.0501,0.0315 2.399247,2.399247 0 0 1 0.0176,0.0114 8.358275,8.358275 0 0 1 -0.0103,-0.33228 8.3582751,8.3582751 0 0 1 -5.1e-4,-0.0589 8.3582751,8.3582751 0 0 1 0.001,-0.11007 8.358275,8.358275 0 0 1 0,-5.1e-4 8.3582751,8.3582751 0 0 1 0.002,-0.11007 8.358275,8.358275 0 0 1 0,-5.2e-4 8.358275,8.358275 0 0 1 0.004,-0.11059 8.358275,8.358275 0 0 1 0.006,-0.11059 8.358275,8.358275 0 0 1 0.006,-0.11058 8.358275,8.358275 0 0 1 0.0553,-0.55036 8.358275,8.358275 0 0 1 0.0501,-0.32866 8.358275,8.358275 0 0 1 0.0196,-0.10904 8.3582751,8.3582751 0 0 1 0.0439,-0.21652 8.358275,8.358275 0 0 1 0,-5.2e-4 8.358275,8.358275 0 0 1 0.0496,-0.21549 8.358275,8.358275 0 0 1 0.0548,-0.21446 8.358275,8.358275 0 0 1 0,-5.1e-4 8.358275,8.358275 0 0 1 0.0615,-0.21239 8.358275,8.358275 0 0 1 0.032,-0.10542 8.358275,8.358275 0 0 1 0,-5.2e-4 8.3582751,8.3582751 0 0 1 0.0341,-0.10542 8.3582751,8.3582751 0 0 1 0.0351,-0.1049 8.3582751,8.3582751 0 0 1 0.01,-0.0274 8.358275,8.358275 0 0 1 0.18086,-0.47232 8.358275,8.358275 0 0 1 0.006,-0.0171 8.358275,8.358275 0 0 1 5.2e-4,-5.1e-4 8.3582751,8.3582751 0 0 1 0.0315,-0.0729 8.358275,8.358275 0 0 1 0.0568,-0.1297 8.358275,8.358275 0 0 1 0.29714,-0.59377 8.358275,8.358275 0 0 1 0,-5.1e-4 8.3582751,8.3582751 0 0 1 0.10903,-0.19224 8.3582751,8.3582751 0 0 1 0.17364,-0.28319 8.3582751,8.3582751 0 0 1 0.12144,-0.18448 8.358275,8.358275 0 0 1 5.1e-4,-5.2e-4 8.3582751,8.3582751 0 0 1 0.009,-0.0139 8.358275,8.358275 0 0 1 0.0537,-0.077 8.358275,8.358275 0 0 1 0.0641,-0.0904 8.358275,8.358275 0 0 1 0.13126,-0.17777 8.358275,8.358275 0 0 1 0,-5.2e-4 8.3582751,8.3582751 0 0 1 0.20619,-0.25993 8.358275,8.358275 0 0 1 0,-5.2e-4 8.3582751,8.3582751 0 0 1 0.0708,-0.0847 8.3582751,8.3582751 0 0 1 0.0724,-0.0842 8.3582751,8.3582751 0 0 1 0.22272,-0.24598 8.358275,8.358275 0 0 1 0,-5.1e-4 8.358275,8.358275 0 0 1 0.31213,-0.31368 8.358275,8.358275 0 0 1 0.16175,-0.1509 8.358275,8.358275 0 0 1 0.33589,-0.28835 8.358275,8.358275 0 0 1 0.0868,-0.0693 8.358275,8.358275 0 0 1 0.0868,-0.0687 8.3582751,8.3582751 0 0 1 0.29042,-0.21394 7.2601478,7.2601478 0 0 1 5.2e-4,0 8.3582751,8.3582751 0 0 1 0,-5.1e-4 7.2601479,7.2601479 0 0 0 -0.0972,-0.0341 7.2601477,7.2601477 0 0 0 -0.19637,-0.0641 7.2601479,7.2601479 0 0 0 -0.0987,-0.03 7.2601477,7.2601477 0 0 0 -0.29869,-0.0816 7.2601479,7.2601479 0 0 0 -0.10025,-0.0243 7.2601477,7.2601477 0 0 0 -0.10025,-0.0232 7.2601479,7.2601479 0 0 0 -0.0832,-0.0176 7.2601479,7.2601479 0 0 0 -0.0176,-0.004 7.2601475,7.2601475 0 0 0 -5.2e-4,0 7.2601477,7.2601477 0 0 0 -0.0196,-0.004 7.2601477,7.2601477 0 0 0 -0.0816,-0.016 7.2601479,7.2601479 0 0 0 -0.10129,-0.0186 7.2601477,7.2601477 0 0 0 -0.1018,-0.0171 7.2601479,7.2601479 0 0 0 -0.10232,-0.016 7.2601477,7.2601477 0 0 0 -0.10181,-0.0139 7.2601479,7.2601479 0 0 0 -0.41031,-0.0424 7.2601477,7.2601477 0 0 0 -0.10335,-0.007 7.2601479,7.2601479 0 0 0 -0.10283,-0.005 7.2601477,7.2601477 0 0 0 -0.10284,-0.004 7.2601479,7.2601479 0 0 0 -5.2e-4,0 7.2601477,7.2601477 0 0 0 -0.10283,-0.003 7.2601479,7.2601479 0 0 0 -0.10904,-0.001 7.2601478,7.2601478 0 0 0 -5.2e-4,0 7.2601479,7.2601479 0 0 0 -0.0139,0 h -1.2945 -5.1e-4 -2.64842 -5.2e-4 z m 12.22509,2.2903 v 5.2e-4 a 4.9689776,4.9689776 0 0 0 -0.38085,0.015 4.9689776,4.9689776 0 0 1 0.38085,-0.0155 z" />
        <path
           id="path646"
           style="mix-blend-mode:normal;fill:#ffffff;fill-opacity:1;stroke:none;stroke-width:0.0829529;stroke-miterlimit:4;stroke-dasharray:none;stroke-opacity:1;stop-color:#000000"
           d="m 115.08131,144.0661 a 3.6300553,3.6300553 0 0 0 -0.14572,0.004 3.6300553,3.6300553 0 0 0 -0.14625,0.009 3.6300553,3.6300553 0 0 0 -0.14469,0.0155 3.6300553,3.6300553 0 0 0 -0.1447,0.0207 3.6300553,3.6300553 0 0 0 -0.0718,0.0124 3.6300553,3.6300553 0 0 0 -0.0713,0.0145 3.6300553,3.6300553 0 0 0 -0.14263,0.0326 3.6300553,3.6300553 0 0 0 -0.0703,0.0186 3.6300553,3.6300553 0 0 0 -0.14004,0.0408 3.6300553,3.6300553 0 0 0 -0.13798,0.0465 3.6300553,3.6300553 0 0 0 -0.20412,0.0796 3.6300553,3.6300553 0 0 0 -0.13281,0.0605 3.6300553,3.6300553 0 0 0 -0.0656,0.032 3.6300553,3.6300553 0 0 0 -0.12919,0.0682 3.6300553,3.6300553 0 0 0 -0.063,0.0357 3.6300553,3.6300553 0 0 0 -0.0631,0.0372 3.6300553,3.6300553 0 0 0 -0.41651,0.29507 3.6300553,3.6300553 0 0 0 -0.0558,0.047 3.6300553,3.6300553 0 0 0 -0.0553,0.0476 3.6300553,3.6300553 0 0 0 -0.25994,0.25579 3.6300553,3.6300553 0 0 0 -0.0486,0.0543 3.6300553,3.6300553 0 0 0 -0.0481,0.0553 3.6300553,3.6300553 0 0 0 -0.0465,0.0563 3.6300553,3.6300553 0 0 0 -0.046,0.0563 3.6300553,3.6300553 0 0 0 -0.17002,0.2372 3.6300553,3.6300553 0 0 0 -0.0393,0.0615 3.6300553,3.6300553 0 0 0 -0.0382,0.062 3.6300553,3.6300553 0 0 0 -0.0729,0.12661 3.6300553,3.6300553 0 0 0 -0.0346,0.0641 3.6300553,3.6300553 0 0 0 -0.0956,0.19689 3.6300553,3.6300553 0 0 0 -0.0289,0.0672 3.6300553,3.6300553 0 0 0 -0.0801,0.2036 3.6300553,3.6300553 0 0 0 -0.0455,0.13849 3.6300553,3.6300553 0 0 0 -0.0212,0.0698 3.6300553,3.6300553 0 0 0 -0.0196,0.0703 3.6300553,3.6300553 0 0 0 -0.0346,0.14159 3.6300553,3.6300553 0 0 0 -0.0625,0.35967 3.6300553,3.6300553 0 0 0 -0.008,0.0724 3.6300553,3.6300553 0 0 0 -0.007,0.0729 3.6300553,3.6300553 0 0 0 -0.005,0.0724 3.6300553,3.6300553 0 0 0 -0.006,0.14624 3.6300553,3.6300553 0 0 0 -0.001,0.0729 3.6300553,3.6300553 0 0 0 0,0.0109 3.6300553,3.6300553 0 0 0 0.004,0.14624 3.6300553,3.6300553 0 0 0 0.004,0.0729 3.6300553,3.6300553 0 0 0 0.0119,0.14522 3.6300553,3.6300553 0 0 0 0.0186,0.14469 3.6300553,3.6300553 0 0 0 0.0109,0.0718 3.6300553,3.6300553 0 0 0 0.0263,0.14418 3.6300553,3.6300553 0 0 0 0.016,0.0713 3.6300553,3.6300553 0 0 0 0.0336,0.13384 3.6300553,3.6300553 0 0 0 0,5.2e-4 3.6300553,3.6300553 0 0 0 0.0217,0.077 3.6300553,3.6300553 0 0 0 0.0207,0.0698 3.6300553,3.6300553 0 0 0 0.047,0.13798 3.6300553,3.6300553 0 0 0 0.0248,0.0687 3.6300553,3.6300553 0 0 0 0.0269,0.0677 3.6300553,3.6300553 0 0 0 0.0284,0.0672 3.6300553,3.6300553 0 0 0 0.0289,0.0667 3.6300553,3.6300553 0 0 0 0.031,0.0661 3.6300553,3.6300553 0 0 0 0.0656,0.13074 3.6300553,3.6300553 0 0 0 0.10748,0.19017 3.6300553,3.6300553 0 0 0 0.0786,0.12299 3.6300553,3.6300553 0 0 0 0.0832,0.11989 3.6300553,3.6300553 0 0 0 0.0434,0.0589 3.6300553,3.6300553 0 0 0 0.0444,0.0579 3.6300553,3.6300553 0 0 0 0.0455,0.0568 3.6300553,3.6300553 0 0 0 0.19379,0.21808 3.6300553,3.6300553 0 0 0 0.10335,0.10283 3.6300553,3.6300553 0 0 0 0.0532,0.0496 3.6300553,3.6300553 0 0 0 0.0543,0.0491 3.6300553,3.6300553 0 0 0 0.0295,0.0258 3.6300553,3.6300553 0 0 0 0.0253,0.0222 3.6300553,3.6300553 0 0 0 0.35036,0.26252 3.6300553,3.6300553 0 0 0 0.0615,0.0393 3.6300553,3.6300553 0 0 0 0.12454,0.0755 3.6300553,3.6300553 0 0 0 0.0636,0.0362 3.6300553,3.6300553 0 0 0 0.26148,0.1297 3.6300553,3.6300553 0 0 0 0.13436,0.0574 3.6300553,3.6300553 0 0 0 0.0677,0.0264 3.6300553,3.6300553 0 0 0 0.0687,0.0248 3.6300553,3.6300553 0 0 0 0.0687,0.0238 3.6300553,3.6300553 0 0 0 0.2098,0.063 3.6300553,3.6300553 0 0 0 0.0708,0.0181 3.6300553,3.6300553 0 0 0 0.14211,0.032 3.6300553,3.6300553 0 0 0 0.0718,0.0139 3.6300553,3.6300553 0 0 0 0.21601,0.0326 3.6300553,3.6300553 0 0 0 0.14573,0.015 3.6300553,3.6300553 0 0 0 0.0723,0.005 3.6300553,3.6300553 0 0 0 0.0729,0.004 3.6300553,3.6300553 0 0 0 0.14624,0.003 3.6300553,3.6300553 0 0 0 0.22945,-0.007 3.6300553,3.6300553 0 0 0 0.0729,-0.006 3.6300553,3.6300553 0 0 0 0.21756,-0.0243 3.6300553,3.6300553 0 0 0 0.0723,-0.0114 3.6300553,3.6300553 0 0 0 0.21446,-0.0424 3.6300553,3.6300553 0 0 0 0.21187,-0.0548 3.6300553,3.6300553 0 0 0 0.0698,-0.0212 3.6300553,3.6300553 0 0 0 0.0692,-0.0227 3.6300553,3.6300553 0 0 0 0.13746,-0.0491 3.6300553,3.6300553 0 0 0 0.33383,-0.14728 3.6300553,3.6300553 0 0 0 0.25528,-0.14107 3.6300553,3.6300553 0 0 0 0.18346,-0.11937 3.6300553,3.6300553 0 0 0 0.0594,-0.0424 3.6300553,3.6300553 0 0 0 0.0584,-0.0434 3.6300553,3.6300553 0 0 0 0.0579,-0.0444 3.6300553,3.6300553 0 0 0 0.42839,-0.39584 3.6300553,3.6300553 0 0 0 0.0961,-0.10904 3.6300553,3.6300553 0 0 0 0.22169,-0.2899 3.6300553,3.6300553 0 0 0 0.25942,-0.43977 3.6300553,3.6300553 0 0 0 0.032,-0.0656 3.6300553,3.6300553 0 0 0 0.0873,-0.2005 3.6300553,3.6300553 0 0 0 0.0517,-0.13643 3.6300553,3.6300553 0 0 0 0.046,-0.13797 3.6300553,3.6300553 0 0 0 0.0212,-0.0703 3.6300553,3.6300553 0 0 0 5.1e-4,-0.002 v -5.2e-4 a 11.220257,11.220257 0 0 1 5.2e-4,0 3.6300553,3.6300553 0 0 0 0.0186,-0.0682 3.6300553,3.6300553 0 0 0 0.0351,-0.14108 3.6300553,3.6300553 0 0 0 0.015,-0.0713 3.6300553,3.6300553 0 0 0 0.0372,-0.21601 3.6300553,3.6300553 0 0 0 0.01,-0.0724 3.6300553,3.6300553 0 0 0 0.008,-0.0723 3.6300553,3.6300553 0 0 0 0.007,-0.0729 3.6300553,3.6300553 0 0 0 0.005,-0.0729 3.6300553,3.6300553 0 0 0 0.006,-0.14573 3.6300553,3.6300553 0 0 0 5.2e-4,-0.0729 3.6300553,3.6300553 0 0 0 -0.007,-0.22996 3.6300553,3.6300553 0 0 0 -0.006,-0.0729 3.6300553,3.6300553 0 0 0 -0.007,-0.0723 3.6300553,3.6300553 0 0 0 -0.008,-0.0729 3.6300553,3.6300553 0 0 0 -0.01,-0.0723 3.6300553,3.6300553 0 0 0 -0.0377,-0.21549 3.6300553,3.6300553 0 0 0 -0.016,-0.0713 3.6300553,3.6300553 0 0 0 -0.0553,-0.21187 3.6300553,3.6300553 0 0 0 -0.0326,-0.1049 h -5.2e-4 a 3.6300553,3.6300553 0 0 0 -0.0599,-0.17105 3.6300553,3.6300553 0 0 0 -0.0553,-0.13488 3.6300553,3.6300553 0 0 0 -0.06,-0.13332 3.6300553,3.6300553 0 0 0 -0.032,-0.0651 3.6300553,3.6300553 0 0 0 -0.0336,-0.0646 3.6300553,3.6300553 0 0 0 -0.0703,-0.12816 3.6300553,3.6300553 0 0 0 -0.0377,-0.063 3.6300553,3.6300553 0 0 0 -0.0382,-0.062 3.6300553,3.6300553 0 0 0 -0.0398,-0.061 3.6300553,3.6300553 0 0 0 -0.0832,-0.11989 3.6300553,3.6300553 0 0 0 -0.0879,-0.11628 3.6300553,3.6300553 0 0 0 -0.0455,-0.0574 3.6300553,3.6300553 0 0 0 -0.0951,-0.11058 3.6300553,3.6300553 0 0 0 -0.0491,-0.0543 3.6300553,3.6300553 0 0 0 -0.0501,-0.0527 3.6300553,3.6300553 0 0 0 -0.0506,-0.0522 3.6300553,3.6300553 0 0 0 -0.0527,-0.0506 3.6300553,3.6300553 0 0 0 -0.2186,-0.19327 3.6300553,3.6300553 0 0 0 -0.35501,-0.2558 3.6300553,3.6300553 0 0 0 -0.062,-0.0377 3.6300553,3.6300553 0 0 0 -0.063,-0.0377 3.6300553,3.6300553 0 0 0 -0.0636,-0.0356 3.6300553,3.6300553 0 0 0 -0.12919,-0.0672 3.6300553,3.6300553 0 0 0 -0.19896,-0.0915 3.6300553,3.6300553 0 0 0 -0.0677,-0.0279 3.6300553,3.6300553 0 0 0 -0.20516,-0.0754 3.6300553,3.6300553 0 0 0 -0.20929,-0.0631 3.6300553,3.6300553 0 0 0 -0.0708,-0.0181 3.6300553,3.6300553 0 0 0 -0.21394,-0.046 3.6300553,3.6300553 0 0 0 -0.0724,-0.0124 3.6300553,3.6300553 0 0 0 -0.0718,-0.0109 3.6300553,3.6300553 0 0 0 -0.1447,-0.0176 3.6300553,3.6300553 0 0 0 -0.0729,-0.006 3.6300553,3.6300553 0 0 0 -0.0724,-0.005 3.6300553,3.6300553 0 0 0 -0.0734,-0.004 3.6300553,3.6300553 0 0 0 -0.14572,-0.003 3.6300553,3.6300553 0 0 0 -0.0114,0 z m 3.10421,4.64778 a 11.220256,11.220256 0 0 0 -0.20154,0.0134 11.220257,11.220257 0 0 1 0.20154,-0.0134 z m -0.39895,0.0269 a 11.220256,11.220256 0 0 0 -0.16743,0.0165 11.220257,11.220257 0 0 1 0.16743,-0.0165 z m -0.40617,0.0413 a 11.220256,11.220256 0 0 0 -0.16072,0.0217 11.220257,11.220257 0 0 1 0.16072,-0.0217 z m -0.40049,0.0558 a 11.220256,11.220256 0 0 0 -0.15917,0.0269 11.220257,11.220257 0 0 1 0.15917,-0.0269 z m -0.38344,0.0672 a 11.220256,11.220256 0 0 0 -0.19637,0.0403 11.220257,11.220257 0 0 1 0.19637,-0.0403 z m -0.39223,0.0832 a 11.220256,11.220256 0 0 0 -0.18965,0.046 11.220257,11.220257 0 0 1 0.18965,-0.046 z m -0.38809,0.0971 a 11.220256,11.220256 0 0 0 -0.18397,0.0506 11.220257,11.220257 0 0 1 0.18397,-0.0506 z m -0.38654,0.1111 a 11.220256,11.220256 0 0 0 -0.18552,0.0584 11.220257,11.220257 0 0 1 0.18552,-0.0584 z m -0.38757,0.12661 a 11.220256,11.220256 0 0 0 -0.16743,0.0594 11.220257,11.220257 0 0 1 0.16743,-0.0594 z m -0.38654,0.14263 a 11.220256,11.220256 0 0 0 -0.15296,0.0599 11.220257,11.220257 0 0 1 0.15296,-0.0599 z m -0.37414,0.15296 a 11.220256,11.220256 0 0 0 -0.15038,0.0651 11.220257,11.220257 0 0 1 0.15038,-0.0651 z m -0.35346,0.15968 a 11.220256,11.220256 0 0 0 -0.16795,0.0801 11.220257,11.220257 0 0 1 0.16795,-0.0801 z m -0.3359,0.16588 a 11.220256,11.220256 0 0 0 -0.19017,0.0987 11.220257,11.220257 0 0 1 0.19017,-0.0987 z" />
        <path
           style="font-variation-settings:normal;mix-blend-mode:normal;fill:#ffffff;fill-opacity:1;stroke:none;stroke-width:0.0829529;stroke-linecap:butt;stroke-linejoin:miter;stroke-miterlimit:4;stroke-dasharray:none;stroke-dashoffset:0;stroke-opacity:1;stop-color:#000000"
           d="m 118.70837,152.66125 a 7.2601477,7.2601477 0 0 0 -0.30945,0.007 7.2601479,7.2601479 0 0 0 -0.10329,0.005 7.2601477,7.2601477 0 0 0 -0.20576,0.0154 7.2601479,7.2601479 0 0 0 -0.30743,0.0336 7.2601477,7.2601477 0 0 0 -0.10247,0.0138 7.2601479,7.2601479 0 0 0 -0.305,0.051 7.2601477,7.2601477 0 0 0 -0.10126,0.0199 7.2601479,7.2601479 0 0 0 -0.20171,0.0441 7.2601477,7.2601477 0 0 0 -0.10045,0.0243 7.2601479,7.2601479 0 0 0 -0.19929,0.0527 7.2601477,7.2601477 0 0 0 -0.19806,0.0583 7.2601479,7.2601479 0 0 0 -0.19604,0.0636 7.2601477,7.2601477 0 0 0 -0.0976,0.034 7.2601479,7.2601479 0 0 0 -0.47917,0.19078 7.2601477,7.2601477 0 0 0 -0.0944,0.0421 7.2601479,7.2601479 0 0 0 -0.0936,0.0438 7.2601477,7.2601477 0 0 0 -0.27665,0.13852 7.2601479,7.2601479 0 0 0 -0.0907,0.0486 7.2601477,7.2601477 0 0 0 -0.17983,0.10126 7.2601479,7.2601479 0 0 0 -0.17701,0.10652 7.2601477,7.2601477 0 0 0 -0.0871,0.0551 7.2601479,7.2601479 0 0 0 -0.0863,0.0563 7.2601477,7.2601477 0 0 0 -0.0859,0.0579 7.2601479,7.2601479 0 0 0 -0.1685,0.11868 7.2601477,7.2601477 0 0 0 -0.16566,0.12354 7.2601479,7.2601479 0 0 0 -0.081,0.0632 7.2601477,7.2601477 0 0 0 -0.15999,0.13043 7.2601479,7.2601479 0 0 0 -0.15635,0.13528 7.2601477,7.2601477 0 0 0 -0.0765,0.0689 7.2601479,7.2601479 0 0 0 -0.15027,0.14136 7.2601477,7.2601477 0 0 0 -0.21751,0.22034 7.2601479,7.2601479 0 0 0 -0.13974,0.15149 7.2601477,7.2601477 0 0 0 -0.13569,0.15594 7.2601479,7.2601479 0 0 0 -0.066,0.079 7.2601477,7.2601477 0 0 0 -0.0648,0.0802 7.2601479,7.2601479 0 0 0 -0.18794,0.24627 7.2601477,7.2601477 0 0 0 -0.23371,0.33983 7.2601479,7.2601479 0 0 0 -0.21427,0.35279 7.2601477,7.2601477 0 0 0 -0.0502,0.0903 7.2601479,7.2601479 0 0 0 -0.049,0.0907 7.2601477,7.2601477 0 0 0 -0.0478,0.0911 7.2601479,7.2601479 0 0 0 -0.0466,0.0923 7.2601477,7.2601477 0 0 0 -0.0891,0.18592 7.2601479,7.2601479 0 0 0 0,4.1e-4 7.2601477,7.2601477 0 0 0 -0.19887,0.47553 7.2601479,7.2601479 0 0 0 -0.0356,0.0968 7.2601477,7.2601477 0 0 0 -0.15797,0.49132 7.2601479,7.2601479 0 0 0 -0.0275,0.0992 7.2601477,7.2601477 0 0 0 -0.0733,0.30055 7.2601479,7.2601479 0 0 0 0,4.1e-4 7.2601477,7.2601477 0 0 0 -0.094,0.50712 7.2601479,7.2601479 0 0 0 -0.0275,0.20454 7.2601477,7.2601477 0 0 0 -0.0215,0.20495 7.2601479,7.2601479 0 0 0 -0.008,0.10289 7.2601477,7.2601477 0 0 0 -0.0174,0.30904 7.2601479,7.2601479 0 0 0 -0.004,0.20617 7.2601477,7.2601477 0 0 0 0,0.0393 v 4.96543 c 0,0.12569 0.006,0.2499 0.0186,0.37223 0.0123,0.12234 0.031,0.24252 0.0551,0.36089 0.0482,0.23676 0.11907,0.46517 0.21062,0.6825 0.13733,0.326 0.32087,0.62758 0.54236,0.89636 0.0738,0.0896 0.15172,0.17557 0.23371,0.25761 0.16396,0.16408 0.34368,0.31246 0.53668,0.44272 0.193,0.13025 0.39923,0.24211 0.61647,0.33375 0.10863,0.0458 0.21997,0.0866 0.33376,0.12192 0.11379,0.0353 0.22998,0.065 0.34834,0.0891 0.11835,0.0241 0.23897,0.0427 0.3613,0.0551 0.12232,0.0124 0.24654,0.0187 0.37223,0.0187 0.12569,0 0.2499,-0.006 0.37224,-0.0187 1.83381,-0.18519 3.25672,-1.72481 3.25857,-3.60853 a 4.9689777,4.9689777 0 0 1 -4.96907,-4.96907 4.9689777,4.9689777 0 0 1 4.96907,-4.96907 4.9689777,4.9689777 0 0 1 4.96907,4.96866 c 0.24995,-2e-4 0.49407,-0.025 0.72949,-0.0729 0.11835,-0.0241 0.23455,-0.0539 0.34833,-0.0891 0.22757,-0.0705 0.44559,-0.16277 0.65131,-0.27422 0.20572,-0.11145 0.39932,-0.24199 0.5784,-0.38965 0.0895,-0.0738 0.17522,-0.15213 0.25721,-0.23412 0.24595,-0.24595 0.45659,-0.52702 0.62376,-0.8356 0.0557,-0.10286 0.10652,-0.20893 0.1523,-0.31755 0.0458,-0.10862 0.0867,-0.21997 0.12192,-0.33376 0.0705,-0.22757 0.11911,-0.46499 0.14379,-0.70963 0.0123,-0.12232 0.0186,-0.24614 0.0186,-0.37183 v -4.2e-4 c 0,-0.25138 -0.0251,-0.49637 -0.0733,-0.73313 -0.0241,-0.11838 -0.0539,-0.23451 -0.0891,-0.34834 -0.0352,-0.11382 -0.0761,-0.22549 -0.12192,-0.33416 -0.0458,-0.10866 -0.0966,-0.21464 -0.1523,-0.31755 -0.0557,-0.10291 -0.11638,-0.20278 -0.18145,-0.29933 -0.19524,-0.28965 -0.43089,-0.54914 -0.69952,-0.77079 -0.0895,-0.0739 -0.18298,-0.14347 -0.27948,-0.2086 -0.0965,-0.0651 -0.19606,-0.12609 -0.29892,-0.18187 -0.20572,-0.11155 -0.42373,-0.20368 -0.65131,-0.27421 -0.22757,-0.0705 -0.46499,-0.11908 -0.70963,-0.14379 -0.12232,-0.0124 -0.24655,-0.019 -0.37224,-0.019 h -4.96502 a 7.2601479,7.2601479 0 0 0 -0.0142,0 z"
           id="path648" />
        <path
           id="path650"
           style="mix-blend-mode:normal;fill:#ffffff;fill-opacity:1;stroke:none;stroke-width:0.0829529;stroke-miterlimit:4;stroke-dasharray:none;stroke-opacity:1;stop-color:#000000"
           d="m 118.72295,154.95217 a 4.9689777,4.9689777 0 0 0 -4.96907,4.96908 4.9689777,4.9689777 0 0 0 4.96907,4.96907 c 0,-0.001 0,-0.002 0,-0.004 v -2.56474 a 2.399247,2.399247 0 0 1 8.3e-4,-0.0595 2.399247,2.399247 0 0 1 0.002,-0.0591 2.399247,2.399247 0 0 1 0.008,-0.11827 2.399247,2.399247 0 0 1 0.007,-0.0591 2.399247,2.399247 0 0 1 0.008,-0.0587 2.399247,2.399247 0 0 1 0.0328,-0.17498 2.399247,2.399247 0 0 1 0.0138,-0.0575 2.399247,2.399247 0 0 1 0.032,-0.11422 2.399247,2.399247 0 0 1 0.0579,-0.1681 2.399247,2.399247 0 0 1 0.0223,-0.0551 2.399247,2.399247 0 0 1 0.0235,-0.0543 2.399247,2.399247 0 0 1 0.0247,-0.0539 2.399247,2.399247 0 0 1 0.0263,-0.0535 2.399247,2.399247 0 0 1 0.11747,-0.20576 2.399247,2.399247 0 0 1 0.0328,-0.0498 2.399247,2.399247 0 0 1 0.0336,-0.0486 2.399247,2.399247 0 0 1 0.22682,-0.27381 2.399247,2.399247 0 0 1 0.12799,-0.12354 2.399247,2.399247 0 0 1 0.0446,-0.0393 2.399247,2.399247 0 0 1 0.13974,-0.11017 2.399247,2.399247 0 0 1 0.0482,-0.0344 2.399247,2.399247 0 0 1 0.049,-0.0332 2.399247,2.399247 0 0 1 0.0498,-0.032 2.399247,2.399247 0 0 1 0.15433,-0.0887 2.399247,2.399247 0 0 1 0.0531,-0.0267 2.399247,2.399247 0 0 1 0.10774,-0.0498 2.399247,2.399247 0 0 1 0.0547,-0.0231 2.399247,2.399247 0 0 1 0.0551,-0.0215 2.399247,2.399247 0 0 1 0.11219,-0.0393 2.399247,2.399247 0 0 1 0.22885,-0.0612 2.399247,2.399247 0 0 1 0.17539,-0.0308 2.399247,2.399247 0 0 1 0.32808,-0.0227 h 2.56636 c 0.001,0 0.003,0 0.004,0 0,0 -1e-5,-4.2e-4 0,-4.2e-4 a 4.9689777,4.9689777 0 0 0 -4.96908,-4.96866 z" />
      </g>
    </g>
  </g>
</svg>
